<svg width="57" height="56" viewBox="0 0 57 56" fill="none" xmlns="http://www.w3.org/2000/svg">
<path d="M24.4999 36.8704C24.4999 37.8704 24.2199 38.8171 23.7266 39.6171C22.8066 41.1638 21.1133 42.2038 19.1666 42.2038C17.2199 42.2038 15.5266 41.1638 14.6066 39.6171C14.1133 38.8171 13.8333 37.8704 13.8333 36.8704C13.8333 33.9238 16.2199 31.5371 19.1666 31.5371C22.1133 31.5371 24.4999 33.9238 24.4999 36.8704Z" stroke="#04322E" stroke-width="2.5" stroke-miterlimit="10" stroke-linecap="round" stroke-linejoin="round"/>
<path d="M17.0884 36.8701L18.4084 38.1901L21.2484 35.5635" stroke="#04322E" stroke-width="2.5" stroke-linecap="round" stroke-linejoin="round"/>
<path d="M36.1685 20.9374C35.8485 20.8841 35.5151 20.8707 35.1685 20.8707H21.8351C21.4618 20.8707 21.1018 20.8974 20.7551 20.9507C20.9418 20.5774 21.2085 20.2308 21.5285 19.9108L25.8618 15.5641C27.6885 13.7508 30.6485 13.7508 32.4751 15.5641L34.8085 17.924C35.6618 18.764 36.1151 19.8307 36.1685 20.9374Z" stroke="#04322E" stroke-width="2.5" stroke-linecap="round" stroke-linejoin="round"/>
<path d="M41.8334 27.5368V34.2035C41.8334 38.2035 39.1667 40.8701 35.1667 40.8701H22.6734C23.0867 40.5235 23.4467 40.0968 23.7267 39.6168C24.2201 38.8168 24.5001 37.8701 24.5001 36.8701C24.5001 33.9235 22.1134 31.5368 19.1667 31.5368C17.5667 31.5368 16.1401 32.2434 15.1667 33.3501V27.5368C15.1667 23.9101 17.3534 21.3768 20.7534 20.9501C21.1001 20.8968 21.4601 20.8701 21.8334 20.8701H35.1667C35.5134 20.8701 35.8467 20.8834 36.1667 20.9368C39.6067 21.3368 41.8334 23.8835 41.8334 27.5368Z" stroke="#04322E" stroke-width="2.5" stroke-linecap="round" stroke-linejoin="round"/>
<path d="M41.8334 28.2041H37.8334C36.3667 28.2041 35.1667 29.4041 35.1667 30.8708C35.1667 32.3374 36.3667 33.5374 37.8334 33.5374H41.8334" stroke="#04322E" stroke-width="2.5" stroke-linecap="round" stroke-linejoin="round"/>
<rect x="1" y="0.5" width="55" height="55" rx="27.5" stroke="#04322E"/>
</svg>
