<svg width="100" height="100" viewBox="0 0 100 100" fill="none" xmlns="http://www.w3.org/2000/svg">
<path d="M87.125 46.3329C87.125 66.7079 72.3334 85.7912 52.1251 91.3746C50.7501 91.7496 49.25 91.7496 47.875 91.3746C27.6666 85.7912 12.875 66.7079 12.875 46.3329V28.0412C12.875 24.6245 15.4584 20.7495 18.6667 19.4579L41.875 9.95801C47.0833 7.83301 52.9583 7.83301 58.1666 9.95801L81.375 19.4579C84.5417 20.7495 87.1667 24.6245 87.1667 28.0412L87.125 46.3329Z" stroke="white" stroke-width="8" stroke-linecap="round" stroke-linejoin="round"/>
<path d="M50 52.0837C54.6023 52.0837 58.3333 48.3527 58.3333 43.7503C58.3333 39.148 54.6023 35.417 50 35.417C45.3976 35.417 41.6666 39.148 41.6666 43.7503C41.6666 48.3527 45.3976 52.0837 50 52.0837Z" stroke="white" stroke-width="8" stroke-miterlimit="10" stroke-linecap="round" stroke-linejoin="round"/>
<path d="M50 52.084V64.584" stroke="white" stroke-width="8" stroke-miterlimit="10" stroke-linecap="round" stroke-linejoin="round"/>
</svg>
