<svg width="128" height="32" viewBox="0 0 128 32" fill="none" xmlns="http://www.w3.org/2000/svg">
<path d="M6.05133 14.6033V13.2549C6.05133 13.1896 6.07727 13.127 6.12345 13.0808C6.16962 13.0346 6.23225 13.0087 6.29755 13.0087C6.36285 13.0087 6.42548 13.0346 6.47165 13.0808C6.51783 13.127 6.54377 13.1896 6.54377 13.2549V14.6033C6.54377 14.6687 6.51783 14.7313 6.47165 14.7775C6.42548 14.8236 6.36285 14.8496 6.29755 14.8496C6.23225 14.8496 6.16962 14.8236 6.12345 14.7775C6.07727 14.7313 6.05133 14.6687 6.05133 14.6033ZM3.97604 16.1106C3.94372 16.1105 3.9117 16.1169 3.88183 16.1292C3.85196 16.1416 3.82481 16.1597 3.80196 16.1826C3.7791 16.2054 3.76098 16.2326 3.74863 16.2624C3.73627 16.2923 3.72994 16.3243 3.72998 16.3567V17.7048C3.72998 17.77 3.7559 17.8326 3.80205 17.8788C3.84819 17.9249 3.91078 17.9508 3.97604 17.9508C4.0413 17.9508 4.10389 17.9249 4.15003 17.8788C4.19618 17.8326 4.2221 17.77 4.2221 17.7048V16.3567C4.22214 16.3243 4.21581 16.2923 4.20346 16.2624C4.1911 16.2326 4.17298 16.2054 4.15012 16.1826C4.12727 16.1597 4.10012 16.1416 4.07025 16.1292C4.04038 16.1169 4.00837 16.1105 3.97604 16.1106ZM7.54187 14.8497C7.67798 14.8497 7.78825 14.7395 7.78825 14.6037V13.2552C7.78825 13.1899 7.76231 13.1273 7.71614 13.0811C7.66996 13.0349 7.60733 13.009 7.54203 13.009C7.47673 13.009 7.4141 13.0349 7.36793 13.0811C7.32175 13.1273 7.29581 13.1899 7.29581 13.2552V14.6037C7.29581 14.7395 7.40608 14.8497 7.54187 14.8497ZM12.4628 14.8497C12.5986 14.8497 12.7088 14.7395 12.7088 14.6037V13.2552C12.7088 13.1899 12.6829 13.1273 12.6367 13.0811C12.5905 13.0349 12.5279 13.009 12.4626 13.009C12.3973 13.009 12.3347 13.0349 12.2885 13.0811C12.2423 13.1273 12.2164 13.1899 12.2164 13.2552V14.6037C12.2164 14.7395 12.3267 14.8497 12.4628 14.8497ZM9.00249 14.8497C9.03481 14.8498 9.06683 14.8434 9.0967 14.8311C9.12657 14.8187 9.15371 14.8006 9.17657 14.7777C9.19943 14.7549 9.21755 14.7277 9.2299 14.6979C9.24225 14.668 9.24859 14.636 9.24855 14.6037V13.2552C9.24855 13.19 9.22262 13.1274 9.17648 13.0812C9.13033 13.0351 9.06775 13.0092 9.00249 13.0092C8.93723 13.0092 8.87464 13.0351 8.8285 13.0812C8.78235 13.1274 8.75643 13.19 8.75643 13.2552V14.6037C8.75643 14.7395 8.8667 14.8497 9.00249 14.8497ZM10.5708 14.8497C10.707 14.8497 10.8172 14.7395 10.8172 14.6037V13.2552C10.8172 13.1899 10.7913 13.1273 10.7451 13.0811C10.6989 13.0349 10.6363 13.009 10.571 13.009C10.5057 13.009 10.4431 13.0349 10.3969 13.0811C10.3507 13.1273 10.3248 13.1899 10.3248 13.2552V14.6037C10.3248 14.7395 10.4351 14.8497 10.5708 14.8497ZM13.6017 16.1106C13.5694 16.1105 13.5374 16.1169 13.5075 16.1292C13.4776 16.1416 13.4505 16.1597 13.4276 16.1826C13.4048 16.2054 13.3867 16.2326 13.3743 16.2624C13.3619 16.2923 13.3556 16.3243 13.3557 16.3567V17.7048C13.3557 17.7701 13.3816 17.8327 13.4278 17.8789C13.4739 17.9251 13.5366 17.951 13.6019 17.951C13.6672 17.951 13.7298 17.9251 13.776 17.8789C13.8221 17.8327 13.8481 17.7701 13.8481 17.7048V16.3567C13.8481 16.3243 13.8417 16.2923 13.8293 16.2624C13.8169 16.2325 13.7988 16.2054 13.7759 16.1825C13.753 16.1597 13.7259 16.1416 13.696 16.1292C13.6661 16.1169 13.6341 16.1105 13.6017 16.1106ZM10.1414 16.1106C10.1091 16.1105 10.0771 16.1169 10.0472 16.1292C10.0173 16.1416 9.9902 16.1597 9.96734 16.1826C9.94448 16.2054 9.92636 16.2326 9.91401 16.2624C9.90166 16.2923 9.89532 16.3243 9.89536 16.3567V17.7048C9.89536 17.77 9.92129 17.8326 9.96743 17.8788C10.0136 17.9249 10.0762 17.9508 10.1414 17.9508C10.2067 17.9508 10.2693 17.9249 10.3154 17.8788C10.3616 17.8326 10.3875 17.77 10.3875 17.7048V16.3567C10.3875 16.3243 10.3812 16.2923 10.3688 16.2624C10.3565 16.2326 10.3384 16.2054 10.3155 16.1826C10.2927 16.1597 10.2655 16.1416 10.2356 16.1292C10.2058 16.1169 10.1737 16.1105 10.1414 16.1106ZM12.0334 16.1106C11.9681 16.1106 11.9055 16.1365 11.8594 16.1827C11.8132 16.2288 11.7873 16.2914 11.7873 16.3567V17.7048C11.7873 17.7701 11.8132 17.8327 11.8594 17.8789C11.9056 17.9251 11.9682 17.951 12.0335 17.951C12.0988 17.951 12.1614 17.9251 12.2076 17.8789C12.2538 17.8327 12.2797 17.7701 12.2797 17.7048V16.3567C12.2796 16.2914 12.2536 16.2288 12.2075 16.1826C12.1613 16.1365 12.0986 16.1106 12.0334 16.1106ZM5.22084 16.1106C5.15555 16.1106 5.09293 16.1365 5.04673 16.1826C5.00054 16.2288 4.97455 16.2914 4.97446 16.3567V17.7048C4.97446 17.7701 5.0004 17.8327 5.04658 17.8789C5.09275 17.9251 5.15538 17.951 5.22068 17.951C5.28598 17.951 5.34861 17.9251 5.39478 17.8789C5.44096 17.8327 5.4669 17.7701 5.4669 17.7048V16.3567C5.46694 16.3243 5.4606 16.2923 5.44825 16.2624C5.4359 16.2326 5.41778 16.2054 5.39492 16.1826C5.37206 16.1597 5.34492 16.1416 5.31505 16.1292C5.28518 16.1169 5.25316 16.1105 5.22084 16.1106ZM8.2495 16.1106C8.21717 16.1105 8.18516 16.1169 8.15528 16.1292C8.12541 16.1416 8.09827 16.1597 8.07541 16.1826C8.05256 16.2054 8.03443 16.2326 8.02208 16.2624C8.00973 16.2923 8.00339 16.3243 8.00344 16.3567V17.7048C8.00344 17.7701 8.02938 17.8327 8.07555 17.8789C8.12173 17.9251 8.18435 17.951 8.24965 17.951C8.31495 17.951 8.37758 17.9251 8.42376 17.8789C8.46993 17.8327 8.49587 17.7701 8.49587 17.7048V16.3567C8.49579 16.2914 8.46979 16.2288 8.4236 16.1826C8.3774 16.1365 8.31479 16.1106 8.2495 16.1106ZM14.3547 14.8497C14.387 14.8498 14.419 14.8434 14.4489 14.8311C14.4788 14.8187 14.5059 14.8006 14.5288 14.7777C14.5516 14.7549 14.5698 14.7277 14.5821 14.6979C14.5945 14.668 14.6008 14.636 14.6008 14.6037V13.2552C14.6008 13.1899 14.5748 13.1273 14.5286 13.0811C14.4825 13.0349 14.4198 13.009 14.3545 13.009C14.2892 13.009 14.2266 13.0349 14.1804 13.0811C14.1343 13.1273 14.1083 13.1899 14.1083 13.2552V14.6037C14.1083 14.7395 14.2186 14.8497 14.3547 14.8497ZM6.68113 16.1106C6.61585 16.1106 6.55323 16.1365 6.50703 16.1826C6.46084 16.2288 6.43484 16.2914 6.43476 16.3567V17.7048C6.43476 17.7701 6.4607 17.8327 6.50687 17.8789C6.55305 17.9251 6.61568 17.951 6.68098 17.951C6.74628 17.951 6.8089 17.9251 6.85508 17.8789C6.90125 17.8327 6.9272 17.7701 6.9272 17.7048V16.3567C6.92724 16.3243 6.9209 16.2923 6.90855 16.2624C6.8962 16.2326 6.87808 16.2054 6.85522 16.1826C6.83236 16.1597 6.80522 16.1416 6.77535 16.1292C6.74547 16.1169 6.71346 16.1105 6.68113 16.1106ZM8.63639 9.90771C8.57113 9.90771 8.50854 9.93364 8.4624 9.97978C8.41625 10.0259 8.39033 10.0885 8.39033 10.1538V11.5022C8.39033 11.5675 8.41627 11.6302 8.46244 11.6763C8.50862 11.7225 8.57125 11.7484 8.63655 11.7484C8.70185 11.7484 8.76447 11.7225 8.81065 11.6763C8.85682 11.6302 8.88276 11.5675 8.88276 11.5022V10.1538C8.88251 10.0885 8.85647 10.026 8.81031 9.97995C8.76415 9.93385 8.70163 9.90788 8.63639 9.90771ZM10.5283 9.90771C10.463 9.90771 10.4004 9.93363 10.3542 9.97976C10.308 10.0259 10.282 10.0885 10.2819 10.1538V11.5022C10.2819 11.5675 10.3079 11.6302 10.3541 11.6763C10.4002 11.7225 10.4629 11.7484 10.5282 11.7484C10.5935 11.7484 10.6561 11.7225 10.7023 11.6763C10.7484 11.6302 10.7744 11.5675 10.7744 11.5022V10.1538C10.7744 10.0183 10.6641 9.90771 10.5283 9.90771ZM7.06803 9.90771C7.00277 9.90771 6.94018 9.93364 6.89404 9.97978C6.84789 10.0259 6.82197 10.0885 6.82197 10.1538V11.5022C6.82197 11.5675 6.84789 11.6301 6.89404 11.6762C6.94018 11.7224 7.00277 11.7483 7.06803 11.7483C7.13329 11.7483 7.19587 11.7224 7.24202 11.6762C7.28816 11.6301 7.31409 11.5675 7.31409 11.5022V10.1538C7.31409 10.0885 7.28816 10.0259 7.24202 9.97978C7.19587 9.93364 7.13329 9.90771 7.06803 9.90771ZM15.9231 14.8497C16.0592 14.8497 16.1694 14.7395 16.1694 14.6037V13.2552C16.1694 13.1899 16.1435 13.1273 16.0973 13.0811C16.0512 13.0349 15.9885 13.009 15.9232 13.009C15.8579 13.009 15.7953 13.0349 15.7491 13.0811C15.7029 13.1273 15.677 13.1899 15.677 13.2552V14.6037C15.677 14.636 15.6833 14.668 15.6957 14.6979C15.708 14.7277 15.7261 14.7549 15.749 14.7777C15.7718 14.8006 15.799 14.8187 15.8289 14.8311C15.8587 14.8434 15.8907 14.8498 15.9231 14.8497ZM4.36293 9.90771C4.29764 9.90771 4.23503 9.93363 4.18883 9.97976C4.14263 10.0259 4.11664 10.0885 4.11656 10.1538V11.5022C4.11656 11.5675 4.1425 11.6302 4.18867 11.6763C4.23485 11.7225 4.29747 11.7484 4.36277 11.7484C4.42808 11.7484 4.4907 11.7225 4.53688 11.6763C4.58305 11.6302 4.60899 11.5675 4.60899 11.5022V10.1538C4.60899 10.0183 4.49872 9.90771 4.36293 9.90771ZM5.60773 9.90771C5.54247 9.90771 5.47988 9.93364 5.43374 9.97978C5.38759 10.0259 5.36167 10.0885 5.36167 10.1538V11.5022C5.36167 11.5675 5.38759 11.6301 5.43374 11.6762C5.47988 11.7224 5.54247 11.7483 5.60773 11.7483C5.67299 11.7483 5.73558 11.7224 5.78172 11.6762C5.82787 11.6301 5.85379 11.5675 5.85379 11.5022V10.1538C5.85379 10.0183 5.74352 9.90771 5.60773 9.90771ZM17.3837 14.8497C17.416 14.8498 17.448 14.8434 17.4779 14.8311C17.5078 14.8187 17.5349 14.8006 17.5578 14.7777C17.5806 14.7549 17.5987 14.7277 17.6111 14.6979C17.6234 14.668 17.6298 14.636 17.6297 14.6037V13.2552C17.6297 13.19 17.6038 13.1274 17.5577 13.0812C17.5115 13.0351 17.4489 13.0092 17.3837 13.0092C17.3184 13.0092 17.2558 13.0351 17.2097 13.0812C17.1635 13.1274 17.1376 13.19 17.1376 13.2552V14.6037C17.1376 14.636 17.1439 14.668 17.1563 14.6979C17.1686 14.7277 17.1867 14.7549 17.2096 14.7777C17.2325 14.8006 17.2596 14.8187 17.2895 14.8311C17.3193 14.8434 17.3514 14.8498 17.3837 14.8497ZM13.9886 9.90771C13.9233 9.90771 13.8608 9.93364 13.8146 9.97978C13.7685 10.0259 13.7425 10.0885 13.7425 10.1538V11.5022C13.7425 11.5675 13.7685 11.6302 13.8147 11.6763C13.8608 11.7225 13.9235 11.7484 13.9888 11.7484C14.0541 11.7484 14.1167 11.7225 14.1629 11.6763C14.209 11.6302 14.235 11.5675 14.235 11.5022V10.1538C14.235 10.0183 14.1247 9.90771 13.9886 9.90771ZM18.6282 14.8497C18.6605 14.8498 18.6925 14.8434 18.7224 14.8311C18.7522 14.8187 18.7794 14.8006 18.8022 14.7777C18.8251 14.7549 18.8432 14.7277 18.8556 14.6979C18.8679 14.668 18.8743 14.636 18.8742 14.6037V13.2552C18.8742 13.19 18.8483 13.1274 18.8022 13.0812C18.756 13.0351 18.6934 13.0092 18.6282 13.0092C18.5629 13.0092 18.5003 13.0351 18.4542 13.0812C18.408 13.1274 18.3821 13.19 18.3821 13.2552V14.6037C18.3821 14.636 18.3884 14.668 18.4007 14.6979C18.4131 14.7277 18.4312 14.7549 18.4541 14.7777C18.4769 14.8006 18.5041 14.8187 18.5339 14.8311C18.5638 14.8434 18.5958 14.8498 18.6282 14.8497ZM16.6937 9.90771C16.6284 9.90771 16.5659 9.93364 16.5197 9.97978C16.4736 10.0259 16.4476 10.0885 16.4476 10.1538V11.5022C16.4476 11.5675 16.4736 11.6301 16.5197 11.6762C16.5659 11.7224 16.6284 11.7483 16.6937 11.7483C16.759 11.7483 16.8215 11.7224 16.8677 11.6762C16.9138 11.6301 16.9398 11.5675 16.9398 11.5022V10.1538C16.9398 10.1215 16.9335 10.0894 16.9211 10.0596C16.9088 10.0297 16.8906 10.0025 16.8678 9.97969C16.8449 9.95683 16.8178 9.93871 16.7879 9.92636C16.758 9.91401 16.726 9.90767 16.6937 9.90771ZM15.4492 9.90771C15.3839 9.90771 15.3213 9.93363 15.2751 9.97976C15.2289 10.0259 15.2029 10.0885 15.2028 10.1538V11.5022C15.2028 11.5675 15.2288 11.6302 15.275 11.6763C15.3211 11.7225 15.3838 11.7484 15.4491 11.7484C15.5144 11.7484 15.577 11.7225 15.6232 11.6763C15.6693 11.6302 15.6953 11.5675 15.6953 11.5022V10.1538C15.6953 10.0183 15.585 9.90771 15.4492 9.90771ZM12.4202 9.90771C12.355 9.9078 12.2925 9.93375 12.2463 9.97988C12.2002 10.026 12.1743 10.0885 12.1742 10.1538V11.5022C12.1742 11.5675 12.2001 11.6302 12.2463 11.6763C12.2925 11.7225 12.3551 11.7484 12.4204 11.7484C12.4857 11.7484 12.5483 11.7225 12.5945 11.6763C12.6407 11.6302 12.6666 11.5675 12.6666 11.5022V10.1538C12.6666 10.0183 12.5563 9.90771 12.4202 9.90771ZM13.1389 24.1654C13.2747 24.1654 13.385 24.0551 13.385 23.9193V22.5709C13.385 22.5056 13.359 22.4429 13.3128 22.3968C13.2667 22.3506 13.204 22.3246 13.1387 22.3246C13.0734 22.3246 13.0108 22.3506 12.9646 22.3968C12.9185 22.4429 12.8925 22.5056 12.8925 22.5709V23.9193C12.8925 24.0551 13.0028 24.1654 13.1389 24.1654ZM11.247 24.1654C11.3828 24.1654 11.493 24.0551 11.493 23.9193V22.5709C11.493 22.5056 11.4671 22.4429 11.4209 22.3968C11.3747 22.3506 11.3121 22.3246 11.2468 22.3246C11.1815 22.3246 11.1189 22.3506 11.0727 22.3968C11.0265 22.4429 11.0006 22.5056 11.0006 22.5709V23.9193C11.0006 24.0551 11.1109 24.1654 11.247 24.1654ZM7.67924 21.0517C7.81535 21.0517 7.92562 20.9414 7.92562 20.8056V19.4571C7.92562 19.3918 7.89967 19.3292 7.8535 19.283C7.80733 19.2369 7.7447 19.2109 7.6794 19.2109C7.6141 19.2109 7.55147 19.2369 7.50529 19.283C7.45912 19.3292 7.43318 19.3918 7.43318 19.4571V20.8056C7.43314 20.8379 7.43947 20.8699 7.45183 20.8998C7.46418 20.9297 7.4823 20.9568 7.50516 20.9797C7.52801 21.0025 7.55516 21.0207 7.58503 21.033C7.6149 21.0454 7.64692 21.0517 7.67924 21.0517ZM16.1676 24.1654C16.1999 24.1654 16.2319 24.1591 16.2618 24.1467C16.2916 24.1344 16.3188 24.1163 16.3416 24.0934C16.3645 24.0705 16.3826 24.0434 16.395 24.0135C16.4073 23.9837 16.4137 23.9516 16.4136 23.9193V22.5709C16.4136 22.5056 16.3877 22.4429 16.3415 22.3968C16.2953 22.3506 16.2327 22.3246 16.1674 22.3246C16.1021 22.3246 16.0395 22.3506 15.9933 22.3968C15.9471 22.4429 15.9212 22.5056 15.9212 22.5709V23.9193C15.9215 24.0551 16.0314 24.1654 16.1676 24.1654ZM17.4123 24.1654C17.4447 24.1654 17.4767 24.1591 17.5066 24.1467C17.5364 24.1344 17.5636 24.1163 17.5864 24.0934C17.6093 24.0705 17.6274 24.0434 17.6398 24.0135C17.6521 23.9837 17.6585 23.9516 17.6584 23.9193V22.5709C17.6584 22.5056 17.6325 22.443 17.5863 22.3969C17.5402 22.3507 17.4776 22.3248 17.4123 22.3248C17.3471 22.3248 17.2845 22.3507 17.2384 22.3969C17.1922 22.443 17.1663 22.5056 17.1663 22.5709V23.9193C17.1662 23.9516 17.1726 23.9837 17.1849 24.0135C17.1973 24.0434 17.2154 24.0705 17.2383 24.0934C17.2611 24.1163 17.2883 24.1344 17.3181 24.1467C17.348 24.1591 17.38 24.1654 17.4123 24.1654ZM14.7073 24.1654C14.843 24.1654 14.9533 24.0551 14.9533 23.9193V22.5709C14.9533 22.5056 14.9274 22.4429 14.8812 22.3968C14.835 22.3506 14.7724 22.3246 14.7071 22.3246C14.6418 22.3246 14.5792 22.3506 14.533 22.3968C14.4868 22.4429 14.4609 22.5056 14.4609 22.5709V23.9193C14.4609 24.0551 14.5711 24.1654 14.7073 24.1654ZM31.5059 6.34283V25.6578C31.5059 29.0239 28.7768 31.7529 25.4101 31.7529H6.09576C2.72904 31.7529 0 29.0239 0 25.6575V6.34283C0 2.97611 2.72904 0.24707 6.09576 0.24707H25.4104C28.7768 0.24707 31.5059 2.97611 31.5059 6.34283ZM3.41933 12.0151H17.5088V9.51232H3.41933V12.0151ZM5.35379 12.6128V15.1156H19.4435V12.6128H5.35379ZM3.03244 18.2174H17.1222V15.7139H3.03244V18.2174ZM6.73564 18.8151V21.3179H20.8254V18.8151H6.73564ZM18.2274 21.9288H4.13767V24.4313H18.2274V21.9288ZM28.4322 15.8078C28.4322 11.1314 24.6414 7.34093 19.9653 7.34093C18.1922 7.33876 16.4635 7.89597 15.0255 8.93324H18.0878V12.0344H20.0226V15.695H17.7009V18.2366H21.4045V21.8973H18.8068V24.1941C19.1858 24.2457 19.5724 24.275 19.9656 24.275C24.6414 24.2747 28.4322 20.4836 28.4322 15.8078ZM9.35472 24.1654C9.49083 24.1654 9.6011 24.0551 9.6011 23.9193V22.5709C9.6011 22.5056 9.57516 22.4429 9.52898 22.3968C9.48281 22.3506 9.42018 22.3246 9.35488 22.3246C9.28958 22.3246 9.22695 22.3506 9.18078 22.3968C9.1346 22.4429 9.10866 22.5056 9.10866 22.5709V23.9193C9.10866 24.0551 9.21893 24.1654 9.35472 24.1654ZM5.08127 24.1654C5.21737 24.1654 5.32764 24.0551 5.32764 23.9193V22.5709C5.32764 22.5056 5.3017 22.4429 5.25553 22.3968C5.20935 22.3506 5.14673 22.3246 5.08142 22.3246C5.01612 22.3246 4.9535 22.3506 4.90732 22.3968C4.86115 22.4429 4.83521 22.5056 4.83521 22.5709V23.9193C4.83521 24.0551 4.94548 24.1654 5.08127 24.1654ZM15.062 16.1106C14.9967 16.1106 14.9341 16.1365 14.8879 16.1826C14.8417 16.2288 14.8157 16.2914 14.8156 16.3567V17.7048C14.8156 17.7701 14.8416 17.8327 14.8877 17.8789C14.9339 17.9251 14.9966 17.951 15.0619 17.951C15.1272 17.951 15.1898 17.9251 15.236 17.8789C15.2821 17.8327 15.3081 17.7701 15.3081 17.7048V16.3567C15.3081 16.3243 15.3018 16.2923 15.2894 16.2624C15.2771 16.2326 15.259 16.2054 15.2361 16.1826C15.2132 16.1597 15.1861 16.1416 15.1562 16.1292C15.1264 16.1169 15.0943 16.1105 15.062 16.1106ZM6.32606 24.1654C6.35839 24.1654 6.3904 24.1591 6.42028 24.1467C6.45015 24.1344 6.47729 24.1163 6.50015 24.0934C6.523 24.0705 6.54113 24.0434 6.55348 24.0135C6.56583 23.9837 6.57217 23.9516 6.57212 23.9193V22.5709C6.57212 22.5056 6.5462 22.443 6.50005 22.3969C6.45391 22.3507 6.39132 22.3248 6.32606 22.3248C6.2608 22.3248 6.19822 22.3507 6.15207 22.3969C6.10593 22.443 6.08 22.5056 6.08 22.5709V23.9193C6.07996 23.9516 6.0863 23.9837 6.09865 24.0135C6.111 24.0434 6.12912 24.0705 6.15198 24.0934C6.17484 24.1163 6.20198 24.1344 6.23185 24.1467C6.26172 24.1591 6.29374 24.1654 6.32606 24.1654ZM7.78636 24.1654C7.92247 24.1654 8.03274 24.0551 8.03274 23.9193V22.5709C8.03274 22.5056 8.00679 22.4429 7.96062 22.3968C7.91445 22.3506 7.85182 22.3246 7.78652 22.3246C7.72122 22.3246 7.65859 22.3506 7.61241 22.3968C7.56624 22.4429 7.5403 22.5056 7.5403 22.5709V23.9193C7.5403 24.0551 7.65057 24.1654 7.78636 24.1654ZM17.3049 21.0517C17.3372 21.0517 17.3693 21.0454 17.3991 21.033C17.429 21.0207 17.4561 21.0025 17.479 20.9797C17.5019 20.9568 17.52 20.9297 17.5323 20.8998C17.5447 20.8699 17.551 20.8379 17.551 20.8056V19.4571C17.551 19.3919 17.525 19.3293 17.4789 19.2832C17.4328 19.237 17.3702 19.2111 17.3049 19.2111C17.2397 19.2111 17.1771 19.237 17.1309 19.2832C17.0848 19.3293 17.0589 19.3919 17.0589 19.4571V20.8056C17.0588 20.8379 17.0651 20.8699 17.0775 20.8998C17.0898 20.9297 17.108 20.9568 17.1308 20.9797C17.1537 21.0025 17.1808 21.0207 17.2107 21.033C17.2406 21.0454 17.2726 21.0517 17.3049 21.0517ZM8.92372 21.0517C8.95605 21.0517 8.98806 21.0454 9.01793 21.033C9.04781 21.0207 9.07495 21.0025 9.09781 20.9797C9.12066 20.9568 9.13879 20.9297 9.15114 20.8998C9.16349 20.8699 9.16982 20.8379 9.16978 20.8056V19.4571C9.16978 19.3919 9.14386 19.3293 9.09771 19.2832C9.05157 19.237 8.98898 19.2111 8.92372 19.2111C8.85846 19.2111 8.79588 19.237 8.74973 19.2832C8.70359 19.3293 8.67766 19.3919 8.67766 19.4571V20.8056C8.67766 20.9417 8.78793 21.0517 8.92372 21.0517ZM15.7362 21.0517C15.8723 21.0517 15.9826 20.9414 15.9826 20.8056V19.4571C15.9826 19.3918 15.9567 19.3292 15.9105 19.283C15.8643 19.2369 15.8017 19.2109 15.7364 19.2109C15.6711 19.2109 15.6085 19.2369 15.5623 19.283C15.5161 19.3292 15.4902 19.3918 15.4902 19.4571V20.8056C15.4902 20.9417 15.6004 21.0517 15.7362 21.0517ZM20.01 21.0517C20.0423 21.0517 20.0743 21.0454 20.1042 21.033C20.1341 21.0207 20.1612 21.0025 20.1841 20.9797C20.2069 20.9568 20.2251 20.9297 20.2374 20.8998C20.2498 20.8699 20.2561 20.8379 20.2561 20.8056V19.4571C20.2561 19.3919 20.2301 19.3293 20.184 19.2832C20.1379 19.237 20.0753 19.2111 20.01 19.2111C19.9447 19.2111 19.8822 19.237 19.836 19.2832C19.7899 19.3293 19.7639 19.3919 19.7639 19.4571V20.8056C19.7639 20.8379 19.7702 20.8699 19.7826 20.8998C19.7949 20.9297 19.8131 20.9568 19.8359 20.9797C19.8588 21.0025 19.8859 21.0207 19.9158 21.033C19.9457 21.0454 19.9777 21.0517 20.01 21.0517ZM16.3068 16.1106C16.2745 16.1105 16.2425 16.1169 16.2126 16.1292C16.1827 16.1416 16.1556 16.1597 16.1327 16.1826C16.1099 16.2054 16.0917 16.2326 16.0794 16.2624C16.067 16.2923 16.0607 16.3243 16.0607 16.3567V17.7048C16.0607 17.77 16.0867 17.8326 16.1328 17.8788C16.179 17.9249 16.2415 17.9508 16.3068 17.9508C16.3721 17.9508 16.4347 17.9249 16.4808 17.8788C16.5269 17.8326 16.5529 17.77 16.5529 17.7048V16.3567C16.5529 16.3243 16.5466 16.2923 16.5342 16.2624C16.5219 16.2326 16.5037 16.2054 16.4809 16.1826C16.458 16.1597 16.4309 16.1416 16.401 16.1292C16.3711 16.1169 16.3391 16.1105 16.3068 16.1106ZM18.7652 21.0517C18.9016 21.0517 19.0116 20.9414 19.0116 20.8056V19.4571C19.0116 19.3918 18.9856 19.3292 18.9395 19.283C18.8933 19.2369 18.8307 19.2109 18.7654 19.2109C18.7001 19.2109 18.6374 19.2369 18.5913 19.283C18.5451 19.3292 18.5191 19.3918 18.5191 19.4571V20.8056C18.5191 20.8379 18.5254 20.8699 18.5378 20.8998C18.5501 20.9297 18.5683 20.9568 18.5911 20.9797C18.614 21.0025 18.6411 21.0207 18.671 21.033C18.7009 21.0454 18.7329 21.0517 18.7652 21.0517ZM13.8443 21.0517C13.9804 21.0517 14.0907 20.9414 14.0907 20.8056V19.4571C14.0907 19.3918 14.0647 19.3292 14.0186 19.283C13.9724 19.2369 13.9098 19.2109 13.8445 19.2109C13.7792 19.2109 13.7165 19.2369 13.6704 19.283C13.6242 19.3292 13.5982 19.3918 13.5982 19.4571V20.8056C13.5982 20.9417 13.7085 21.0517 13.8443 21.0517ZM10.384 21.0517C10.5201 21.0517 10.6304 20.9414 10.6304 20.8056V19.4571C10.6304 19.3918 10.6045 19.3292 10.5583 19.283C10.5121 19.2369 10.4495 19.2109 10.3842 19.2109C10.3189 19.2109 10.2562 19.2369 10.2101 19.283C10.1639 19.3292 10.138 19.3918 10.138 19.4571V20.8056C10.138 20.9417 10.2482 21.0517 10.384 21.0517ZM11.9527 21.0517C12.0885 21.0517 12.1988 20.9414 12.1988 20.8056V19.4571C12.1988 19.3918 12.1728 19.3292 12.1266 19.283C12.0805 19.2369 12.0178 19.2109 11.9525 19.2109C11.8872 19.2109 11.8246 19.2369 11.7784 19.283C11.7323 19.3292 11.7063 19.3918 11.7063 19.4571V20.8056C11.7063 20.9417 11.8166 21.0517 11.9527 21.0517Z" fill="url(#paint0_linear_1813_33446)"/>
<path d="M51.1205 10.6867C49.9088 8.21413 47.3216 7.49365 44.8163 7.49365C41.8689 7.5264 38.6104 8.86912 38.6104 12.1768C38.6104 15.7792 41.6396 16.647 44.9146 17.04C47.0433 17.2693 48.6316 17.8915 48.6316 19.398C48.6316 21.1337 46.8468 21.805 44.9309 21.805C42.9824 21.805 41.132 21.019 40.4279 19.267L37.9062 20.5606C39.0852 23.508 41.6069 24.5068 44.8982 24.5068C48.4678 24.5068 51.6281 22.9676 51.6281 19.398C51.6281 15.5663 48.517 14.6985 45.1602 14.2891C43.2444 14.0599 41.5905 13.6669 41.5905 12.275C41.5905 11.0797 42.6712 10.13 44.9146 10.13C46.6503 10.13 48.1731 11.0142 48.7135 11.9312L51.1205 10.6867ZM54.903 9.90071V12.8154H52.8071V15.2224H54.903V20.1021C54.903 22.9349 56.5077 24.3267 58.9639 24.2285C59.8154 24.2121 60.4868 24.0811 61.2891 23.7536L60.5031 21.3629C60.0938 21.5758 59.5862 21.7068 59.1441 21.7068C58.2762 21.7068 57.6867 21.1828 57.6867 20.1021V15.2224H60.8306V12.8154H57.7031V9.60597L54.903 9.90071ZM62.9757 12.799V18.7266C62.9757 22.2471 64.957 24.2776 67.6588 24.2776C69.2308 24.2776 70.3115 23.7372 71.4905 22.591L71.6706 24.1138H74.1595V12.799H71.3922V18.5792C71.3922 20.2986 70.2296 21.7395 68.5103 21.7395C66.7091 21.7395 65.7758 20.4296 65.7758 18.7102V12.799H62.9757ZM82.9527 8.05039C80.9713 8.05039 78.6134 8.05039 76.6485 8.05039V24.0975C78.6134 24.0975 80.9713 24.0975 82.9527 24.0975C88.5691 24.0975 91.0417 19.9874 90.9762 15.9429C90.8943 11.9639 88.4545 8.05039 82.9527 8.05039ZM79.645 10.9159H82.9527C86.4241 10.9159 87.8978 13.4212 87.9633 15.9102C88.0288 18.5301 86.5878 21.1828 82.9527 21.1828H79.645V10.9159ZM104.452 19.4471C104.878 14.7967 102.52 12.4551 98.7377 12.4551C95.0698 12.4551 92.7283 14.9277 92.7283 18.3664C92.7283 21.9851 95.0535 24.3922 98.9506 24.3922C100.67 24.3922 102.619 23.8027 103.814 22.5582L102.013 20.7898C101.374 21.4612 100.031 21.8541 98.9997 21.8541C97.0184 21.8541 95.8067 20.8389 95.6266 19.4471H104.452ZM95.6757 17.1219C96.0851 15.6646 97.3131 14.9277 98.836 14.9277C100.441 14.9277 101.587 15.6646 101.767 17.1219H95.6757ZM112.869 15.1406C114.654 15.1406 116.078 16.4014 116.078 18.4319C116.078 20.4132 114.654 21.7559 112.869 21.7559C111.101 21.7559 109.578 20.4787 109.578 18.4319C109.578 16.4669 111.101 15.1406 112.869 15.1406ZM106.598 8.06676V24.0975H109.217L109.398 22.5419C110.265 23.8846 111.674 24.3431 113.049 24.3431C116.373 24.3431 118.862 22.1489 118.862 18.4319C118.862 14.5347 116.422 12.5206 113.115 12.5206C111.919 12.5206 110.069 13.1592 109.398 14.3382V8.06676H106.598ZM121.613 9.90071V12.8154H119.517V15.2224H121.613V20.1021C121.613 22.9349 123.218 24.3267 125.674 24.2285C126.525 24.2121 127.197 24.0811 127.999 23.7536L127.213 21.3629C126.804 21.5758 126.296 21.7068 125.854 21.7068C124.986 21.7068 124.397 21.1828 124.397 20.1021V15.2224H127.541V12.8154H124.413V9.60597L121.613 9.90071Z" fill="#04322E"/>
<defs>
<linearGradient id="paint0_linear_1813_33446" x1="0" y1="0.24707" x2="28.554" y2="13.562" gradientUnits="userSpaceOnUse">
<stop stop-color="#021E1B"/>
<stop offset="1" stop-color="#5CBAB0"/>
</linearGradient>
</defs>
</svg>
